<svg fill="black" id="Layer_1" data-name="Layer 1" xmlns="http://www.w3.org/2000/svg" viewBox="0 0 420.66 128.08"><defs></defs><path class="cls-1" d="M296.14,275.33a5.85,5.85,0,1,0-5.85-5.85A5.86,5.86,0,0,0,296.14,275.33Z" transform="translate(-242.34 -207.5)"/><path class="cls-1" d="M357.37,249.06a5.07,5.07,0,1,0,5.06,5.06A5.07,5.07,0,0,0,357.37,249.06Z" transform="translate(-242.34 -207.5)"/><path class="cls-1" d="M329.53,287.4a8.19,8.19,0,1,0,4.47,4.38A8.14,8.14,0,0,0,329.53,287.4Z" transform="translate(-242.34 -207.5)"/><path class="cls-1" d="M298.6,313.14a2.68,2.68,0,0,0-1.47-1.43,2.63,2.63,0,0,0-2,0,2.68,2.68,0,0,0-1.41,3.51,2.68,2.68,0,0,0,2.46,1.62,2.73,2.73,0,0,0,1.05-.21,2.69,2.69,0,0,0,1.41-3.51Z" transform="translate(-242.34 -207.5)"/><path class="cls-1" d="M270.63,289.56a2.26,2.26,0,0,0,.89,4.33,2.32,2.32,0,0,0,.89-.18,2.26,2.26,0,0,0-1.78-4.15Z" transform="translate(-242.34 -207.5)"/><path class="cls-1" d="M294.13,252.47a3.84,3.84,0,1,0-3.84-3.84A3.84,3.84,0,0,0,294.13,252.47Z" transform="translate(-242.34 -207.5)"/><path class="cls-1" d="M337.24,268.56a1.73,1.73,0,0,0,.68,3.32,1.8,1.8,0,0,0,.68-.14,1.72,1.72,0,0,0,.92-.95,1.68,1.68,0,0,0,0-1.32,1.72,1.72,0,0,0-.95-.92A1.68,1.68,0,0,0,337.24,268.56Z" transform="translate(-242.34 -207.5)"/><path class="cls-1" d="M353.72,207.5a10.22,10.22,0,0,0-10.21,10.21,10,10,0,0,0,1,4.34,141,141,0,0,0-16.06,13.36l-2.91,2.66.35.39a46.83,46.83,0,0,0-41.91-.82c-16.77-5.87-23.22-3.58-25.67-.59-3.81,4.67-.81,13.6,3.76,22.15a46.82,46.82,0,0,0,.59,42.85c-21.08,22.06-21.67,28.28-19.42,31.43a5.39,5.39,0,0,0,3.85,2.07l.24,0,3.12-.31.35-.19c9.3-5,16.7-11.76,23.63-18.69a46.85,46.85,0,0,0,53.09,4.35c8.26,3.83,13.31,5,16.48,5,3.35,0,4.59-1.28,5.3-2,2.83-2.92,2.85-9.28,2.42-12.58a21.35,21.35,0,0,0-5.07-11.2A46.82,46.82,0,0,0,341,251c6.15-6.57,12.74-14.32,16.31-23.72a10.2,10.2,0,0,0-3.55-19.77Zm-49.6,29.59a42.82,42.82,0,0,1,31.47,13.76c-4.92,5.17-10,10.33-14.89,15.33l-7.06,7.2c-3.92,4-8.33,8.52-12.92,12.7a12.53,12.53,0,0,0-14.06-.2,106.68,106.68,0,0,1-10.2-11.76,142.87,142.87,0,0,1-9.84-15A43,43,0,0,1,304.12,237.09Zm-2,59.31a8.58,8.58,0,1,1-8.58-8.58A8.58,8.58,0,0,1,302.12,296.4ZM261.4,239.58c.56-.68,3.9-3.58,17.8.7A47.35,47.35,0,0,0,264.43,255C261,248,259.35,242.1,261.4,239.58Zm-12.14,91.79-1.85.18a1.5,1.5,0,0,1-.93-.4c-.27-.37-1.95-4.21,18.29-25.52a47.53,47.53,0,0,0,6.67,8.09C264.84,320.29,257.84,326.72,249.26,331.37Zm25-20.48a42.89,42.89,0,0,1-9.78-47.4c3.08,5.16,6.42,9.87,8.77,13a111.24,111.24,0,0,0,10.45,12.07,12.5,12.5,0,0,0-1.1,14c-2.47,2.36-4.89,4.81-7.25,7.21ZM304.12,323a42.77,42.77,0,0,1-26.86-9.46l.94-.94c2.25-2.29,4.57-4.64,6.92-6.89a12.53,12.53,0,0,0,16.47.34c8.67,5.53,15.73,9.59,21.5,12.53A42.72,42.72,0,0,1,304.12,323Zm43.63-11.35c.5,3.84-.1,8-1.33,9.28-.59.6-3.43,2.25-14.93-2.76a47.33,47.33,0,0,0,13.11-14.38A17.28,17.28,0,0,1,347.75,311.65Zm-.68-31.6a43,43,0,0,1-19.81,36.16,241.12,241.12,0,0,1-23-13.23,12.46,12.46,0,0,0-.63-14.11c4.61-4.21,9-8.69,12.91-12.69,2.34-2.41,4.69-4.8,7-7.2,4.82-4.91,9.79-10,14.63-15.06A42.73,42.73,0,0,1,347.07,280.05Zm-8.73-32.11a47.55,47.55,0,0,0-9.3-7.66l2.11-1.93c5-4.58,10.12-9.3,15.73-13.09a10.14,10.14,0,0,0,5.82,2.6C349.29,235.59,343.68,242.21,338.34,247.94Zm15.38-24a6.21,6.21,0,1,1,6.21-6.2A6.21,6.21,0,0,1,353.72,223.91Z" transform="translate(-242.34 -207.5)"/><path class="cls-1" d="M417.24,236a13.05,13.05,0,0,0,7,1.88,14.14,14.14,0,0,0,8.33-2.49,13,13,0,0,0,4.95-7l-3.45-1.83a11.32,11.32,0,0,1-3.65,5.63,9,9,0,0,1-5.75,2,8.49,8.49,0,0,1-4.79-1.42,9.86,9.86,0,0,1-3.39-3.79,11.48,11.48,0,0,1-.05-10.24A9.54,9.54,0,0,1,419.7,215a8.37,8.37,0,0,1,4.77-1.42,9.4,9.4,0,0,1,5.09,1.46,10,10,0,0,1,3.64,4.06h3.52v-8.68h-3.44v3a13.59,13.59,0,0,0-4.12-2.55,13,13,0,0,0-4.86-.88,13.65,13.65,0,0,0-7,1.76,12.45,12.45,0,0,0-4.79,5,15.23,15.23,0,0,0-1.73,7.33,14.45,14.45,0,0,0,1.7,7A13,13,0,0,0,417.24,236Z" transform="translate(-242.34 -207.5)"/><path class="cls-1" d="M447.75,236.07a14.12,14.12,0,0,0,7.19,1.82,15,15,0,0,0,7.31-1.75,12.59,12.59,0,0,0,5-5,14.57,14.57,0,0,0,1.83-7.34,14.28,14.28,0,0,0-1.77-7.1,12.78,12.78,0,0,0-5-5,14.63,14.63,0,0,0-7.38-1.82,14.33,14.33,0,0,0-7.15,1.76,12.81,12.81,0,0,0-4.93,4.92,14.18,14.18,0,0,0-1.78,7.15,14.94,14.94,0,0,0,1.75,7.26A12.77,12.77,0,0,0,447.75,236.07Zm-1-17.51a8.8,8.8,0,0,1,8.14-5,9.34,9.34,0,0,1,5,1.38,9.72,9.72,0,0,1,3.5,3.75,10.89,10.89,0,0,1,1.26,5.17,11.44,11.44,0,0,1-1.19,5.13,9.78,9.78,0,0,1-3.39,3.87,8.78,8.78,0,0,1-5,1.45,9.45,9.45,0,0,1-5.05-1.33,8.66,8.66,0,0,1-3.33-3.72,12.32,12.32,0,0,1-1.16-5.44A11.74,11.74,0,0,1,446.72,218.56Z" transform="translate(-242.34 -207.5)"/><polygon class="cls-1" points="239.34 26.57 236.36 26.57 236.36 6.25 245.59 30.23 246.4 30.23 255.7 6.25 255.7 26.57 252.51 26.57 252.51 29.94 262.69 29.94 262.69 26.57 259.42 26.57 259.42 6.25 262.69 6.25 262.69 2.88 253.31 2.88 246.15 21.41 239.02 2.88 229.73 2.88 229.73 6.25 233.02 6.25 233.02 26.57 229.73 26.57 229.73 29.94 239.34 29.94 239.34 26.57"/><polygon class="cls-1" points="274.58 26.57 271.6 26.57 271.6 6.25 280.83 30.23 281.64 30.23 290.94 6.25 290.94 26.57 287.75 26.57 287.75 29.94 297.93 29.94 297.93 26.57 294.66 26.57 294.66 6.25 297.93 6.25 297.93 2.88 288.55 2.88 281.39 21.41 274.26 2.88 264.97 2.88 264.97 6.25 268.26 6.25 268.26 26.57 264.97 26.57 264.97 29.94 274.58 29.94 274.58 26.57"/><path class="cls-1" d="M545.6,227.72c0,3.42.8,6,2.4,7.65s4,2.52,7.18,2.52,5.56-.85,7.19-2.54,2.45-4.16,2.45-7.39V213.75h3.38v-3.38H557.6v3.38h3.16v13.83c0,2.43-.47,4.2-1.43,5.32a5.16,5.16,0,0,1-4.15,1.67,5,5,0,0,1-4.09-1.69c-.93-1.13-1.39-2.9-1.39-5.34V213.75h3.2v-3.38H542.26v3.38h3.34Z" transform="translate(-242.34 -207.5)"/><polygon class="cls-1" points="344.7 6.25 348.56 6.25 348.56 23.91 336.67 2.88 327.44 2.88 327.44 6.25 331.3 6.25 331.3 26.57 327.44 26.57 327.44 29.94 338.52 29.94 338.52 26.57 334.64 26.57 334.64 7.1 347.63 30.23 351.83 30.23 351.83 6.25 355.8 6.25 355.8 2.88 344.7 2.88 344.7 6.25"/><polygon class="cls-1" points="357.79 6.25 360.72 6.25 360.72 26.57 357.79 26.57 357.79 29.94 367.76 29.94 367.76 26.57 364.81 26.57 364.81 6.25 367.76 6.25 367.76 2.88 357.79 2.88 357.79 6.25"/><polygon class="cls-1" points="370.19 12.77 373.53 12.77 373.53 6.25 379.08 6.25 379.08 26.57 375.63 26.57 375.63 29.94 386.69 29.94 386.69 26.57 383.17 26.57 383.17 6.25 388.76 6.25 388.76 12.77 392.1 12.77 392.1 2.88 370.19 2.88 370.19 12.77"/><polygon class="cls-1" points="409.84 2.88 409.84 6.25 413.22 6.25 407.74 14.6 401.81 6.25 405.21 6.25 405.21 2.88 394.09 2.88 394.09 6.25 397.4 6.25 405.46 17.62 405.46 26.57 401.81 26.57 401.81 29.94 413.26 29.94 413.26 26.57 409.54 26.57 409.54 17.62 417.12 6.25 420.66 6.25 420.66 2.88 409.84 2.88"/><path class="cls-1" d="M417.38,269.08l3.38.95c2.73.76,4.09,2.1,4.09,4a4.33,4.33,0,0,1-1.26,3.32,5,5,0,0,1-3.53,1.17q-3.9,0-6.33-4.45v-2.39h-3.37v9.86h3.37v-2.24a9.87,9.87,0,0,0,6.7,2.69,8.66,8.66,0,0,0,6.16-2.15,7.61,7.61,0,0,0,2.3-5.84,10.48,10.48,0,0,0-.49-3.32,6.27,6.27,0,0,0-2.12-2.82,12.34,12.34,0,0,0-4.66-2.14l-3.18-.85a10,10,0,0,1-3.44-1.43,2.9,2.9,0,0,1-1.12-2.46,3,3,0,0,1,1.18-2.59,5.57,5.57,0,0,1,3.42-.9,6.56,6.56,0,0,1,5.74,3.16v1.87h3.31v-8.21h-3.31v1.85a9.76,9.76,0,0,0-6-2.13,8.23,8.23,0,0,0-5.83,2,7.19,7.19,0,0,0-2.11,5.54,6.41,6.41,0,0,0,1.74,4.69A12,12,0,0,0,417.38,269.08Z" transform="translate(-242.34 -207.5)"/><path class="cls-1" d="M433.72,260.82a15.15,15.15,0,0,0-1.74,7.33,14.57,14.57,0,0,0,1.7,7A13,13,0,0,0,445.42,282a14.11,14.11,0,0,0,8.32-2.49,12.84,12.84,0,0,0,4.95-7l-3.45-1.83a11.26,11.26,0,0,1-3.64,5.63,9,9,0,0,1-5.75,2,8.53,8.53,0,0,1-4.8-1.42,9.92,9.92,0,0,1-3.38-3.79,11,11,0,0,1-1.23-5.17,11.24,11.24,0,0,1,1.17-5.07,9.62,9.62,0,0,1,3.28-3.77,8.37,8.37,0,0,1,4.78-1.41,9.35,9.35,0,0,1,5.08,1.45,10.07,10.07,0,0,1,3.65,4.06h3.52v-8.68h-3.45v3a13.67,13.67,0,0,0-4.11-2.55,13.1,13.1,0,0,0-4.87-.88,13.8,13.8,0,0,0-7,1.76A12.49,12.49,0,0,0,433.72,260.82Z" transform="translate(-242.34 -207.5)"/><polygon class="cls-1" points="219.31 50.39 222.24 50.39 222.24 70.71 219.31 70.71 219.31 74.08 229.28 74.08 229.28 70.71 226.34 70.71 226.34 50.39 229.28 50.39 229.28 47.02 219.31 47.02 219.31 50.39"/><polygon class="cls-1" points="253.58 54.92 253.58 47.02 231.08 47.02 231.08 50.39 234.56 50.39 234.56 70.71 231.08 70.71 231.08 74.08 253.58 74.08 253.58 65.77 250.24 65.77 250.24 70.71 238.66 70.71 238.66 61.83 248.73 61.83 248.73 58.46 238.66 58.46 238.66 50.39 250.24 50.39 250.24 54.92 253.58 54.92"/><polygon class="cls-1" points="255.72 50.39 259.58 50.39 259.58 70.71 255.72 70.71 255.72 74.08 266.8 74.08 266.8 70.71 262.92 70.71 262.92 51.24 275.91 74.37 280.11 74.37 280.11 50.39 284.08 50.39 284.08 47.02 272.98 47.02 272.98 50.39 276.84 50.39 276.84 68.05 264.95 47.02 255.72 47.02 255.72 50.39"/><path class="cls-1" d="M538,259.09a8.37,8.37,0,0,1,4.78-1.41,9.35,9.35,0,0,1,5.08,1.45,10.14,10.14,0,0,1,3.65,4.06H555v-8.68h-3.45v3a13.67,13.67,0,0,0-4.11-2.55,13.1,13.1,0,0,0-4.87-.88,13.8,13.8,0,0,0-7,1.76,12.58,12.58,0,0,0-4.79,5,15.26,15.26,0,0,0-1.73,7.33,14.57,14.57,0,0,0,1.7,7A13,13,0,0,0,542.5,282a14.11,14.11,0,0,0,8.32-2.49,12.84,12.84,0,0,0,4.95-7l-3.45-1.83a11.27,11.27,0,0,1-3.65,5.63,9,9,0,0,1-5.74,2,8.53,8.53,0,0,1-4.8-1.42,9.84,9.84,0,0,1-3.38-3.79,11,11,0,0,1-1.23-5.17,11.24,11.24,0,0,1,1.17-5.07A9.62,9.62,0,0,1,538,259.09Z" transform="translate(-242.34 -207.5)"/><polygon class="cls-1" points="315.8 50.39 319.29 50.39 319.29 70.71 315.8 70.71 315.8 74.08 338.31 74.08 338.31 65.77 334.96 65.77 334.96 70.71 323.38 70.71 323.38 61.83 333.46 61.83 333.46 58.46 323.38 58.46 323.38 50.39 334.96 50.39 334.96 54.92 338.31 54.92 338.31 47.02 315.8 47.02 315.8 50.39"/><polygon class="cls-1" points="184.16 109.69 177.03 91.16 167.75 91.16 167.75 94.53 171.03 94.53 171.03 114.85 167.75 114.85 167.75 118.22 177.36 118.22 177.36 114.85 174.38 114.85 174.38 94.53 183.61 118.51 184.42 118.51 193.72 94.53 193.72 114.85 190.52 114.85 190.52 118.22 200.71 118.22 200.71 114.85 197.44 114.85 197.44 94.53 200.71 94.53 200.71 91.16 191.33 91.16 184.16 109.69"/><path class="cls-1" d="M460.38,302h3.16v13.83c0,2.43-.48,4.21-1.43,5.32a5.18,5.18,0,0,1-4.16,1.67,5,5,0,0,1-4.08-1.69q-1.39-1.68-1.39-5.33V302h3.19v-3.37H445V302h3.34v14q0,5.12,2.4,7.64t7.17,2.52c3.17,0,5.56-.84,7.2-2.54s2.45-4.16,2.45-7.39V302H471v-3.37h-10.6Z" transform="translate(-242.34 -207.5)"/><path class="cls-1" d="M489.07,312a12.34,12.34,0,0,0-4.66-2.14l-3.18-.84a10.15,10.15,0,0,1-3.44-1.44,2.88,2.88,0,0,1-1.12-2.46,3,3,0,0,1,1.18-2.59,5.59,5.59,0,0,1,3.42-.9,6.56,6.56,0,0,1,5.74,3.16v1.87h3.31v-8.21H487v1.85a9.74,9.74,0,0,0-6-2.13,8.23,8.23,0,0,0-5.83,2,7.19,7.19,0,0,0-2.11,5.54,6.41,6.41,0,0,0,1.74,4.69,12,12,0,0,0,5.39,2.82l3.38.95q4.09,1.14,4.09,4.05a4.33,4.33,0,0,1-1.25,3.31,5,5,0,0,1-3.54,1.18q-3.9,0-6.32-4.46v-2.39h-3.38v9.86h3.38v-2.24a9.84,9.84,0,0,0,6.7,2.69,8.69,8.69,0,0,0,6.16-2.15,7.64,7.64,0,0,0,2.29-5.84,10.48,10.48,0,0,0-.49-3.32A6.27,6.27,0,0,0,489.07,312Z" transform="translate(-242.34 -207.5)"/><polygon class="cls-1" points="251.19 94.53 254.68 94.53 254.68 114.85 251.19 114.85 251.19 118.22 273.7 118.22 273.7 109.91 270.36 109.91 270.36 114.85 258.77 114.85 258.77 105.98 268.85 105.98 268.85 102.6 258.77 102.6 258.77 94.53 270.36 94.53 270.36 99.06 273.7 99.06 273.7 91.16 251.19 91.16 251.19 94.53"/><path class="cls-1" d="M533.55,302h3.16v13.83c0,2.43-.47,4.21-1.43,5.32a5.16,5.16,0,0,1-4.15,1.67,5,5,0,0,1-4.09-1.69q-1.39-1.68-1.39-5.33V302h3.2v-3.37H518.21V302h3.34v14q0,5.12,2.4,7.64t7.18,2.52c3.16,0,5.56-.84,7.19-2.54s2.45-4.16,2.45-7.39V302h3.38v-3.37h-10.6Z" transform="translate(-242.34 -207.5)"/><polygon class="cls-1" points="320.13 109.69 313 91.16 303.71 91.16 303.71 94.53 307 94.53 307 114.85 303.71 114.85 303.71 118.22 313.32 118.22 313.32 114.85 310.34 114.85 310.34 94.53 319.57 118.51 320.38 118.51 329.68 94.53 329.68 114.85 326.49 114.85 326.49 118.22 336.67 118.22 336.67 114.85 333.4 114.85 333.4 94.53 336.67 94.53 336.67 91.16 327.29 91.16 320.13 109.69"/><rect class="cls-1" x="141.88" y="4.35" width="4" height="114.32"/></svg>